<?xml version="1.0" encoding="utf-8"?>
<!-- Generator: Adobe Illustrator 23.0.1, SVG Export Plug-In . SVG Version: 6.00 Build 0)  -->
<svg version="1.1" xmlns="http://www.w3.org/2000/svg" xmlns:xlink="http://www.w3.org/1999/xlink" x="0px" y="0px"
	 viewBox="0 0 41 26" style="enable-background:new 0 0 41 26;" xml:space="preserve">
<style type="text/css">
	.st0{fill:#F5CF78;}
</style>
<g id="Layer_1">
	<path class="st0" d="M0.5,0.5v25h40v-25H0.5z M12.99,16.19c0.59,0.72,1.47,1.08,2.63,1.08c0.48,0,0.92-0.07,1.32-0.22
		c0.41-0.14,0.86-0.39,1.37-0.73c0.11-0.07,0.22-0.12,0.33-0.17c0.11-0.04,0.23-0.07,0.35-0.07c0.19,0,0.35,0.08,0.48,0.25
		c0.13,0.17,0.2,0.37,0.2,0.62c0,0.17-0.03,0.31-0.08,0.44c-0.06,0.13-0.16,0.25-0.3,0.36c-0.5,0.41-1.07,0.73-1.72,0.94
		c-0.64,0.22-1.33,0.32-2.07,0.32c-1.13,0-2.13-0.24-2.98-0.73c-0.85-0.49-1.5-1.19-1.96-2.1c-0.46-0.91-0.68-1.98-0.68-3.2
		s0.23-2.29,0.68-3.19c0.45-0.91,1.11-1.6,1.96-2.09c0.85-0.49,1.84-0.73,2.98-0.73c0.73,0,1.42,0.11,2.07,0.33
		c0.64,0.22,1.22,0.53,1.72,0.94c0.14,0.11,0.24,0.23,0.3,0.35c0.06,0.12,0.08,0.27,0.08,0.45c0,0.24-0.07,0.45-0.2,0.62
		C19.35,9.82,19.19,9.91,19,9.91c-0.22,0-0.45-0.08-0.68-0.23c-0.48-0.36-0.92-0.6-1.33-0.74s-0.87-0.21-1.37-0.21
		c-1.16,0-2.03,0.36-2.63,1.08c-0.59,0.72-0.89,1.78-0.89,3.18C12.1,14.4,12.4,15.47,12.99,16.19z M24.41,16.19
		c0.59,0.72,1.47,1.08,2.63,1.08c0.48,0,0.92-0.07,1.32-0.22c0.41-0.14,0.86-0.39,1.37-0.73c0.11-0.07,0.22-0.12,0.33-0.17
		c0.11-0.04,0.23-0.07,0.35-0.07c0.19,0,0.35,0.08,0.48,0.25c0.13,0.17,0.2,0.37,0.2,0.62c0,0.17-0.03,0.31-0.08,0.44
		s-0.16,0.25-0.3,0.36c-0.5,0.41-1.07,0.73-1.72,0.94c-0.64,0.22-1.33,0.32-2.07,0.32c-1.13,0-2.13-0.24-2.98-0.73
		c-0.85-0.49-1.5-1.19-1.96-2.1c-0.46-0.91-0.68-1.98-0.68-3.2S21.54,10.71,22,9.8c0.45-0.91,1.11-1.6,1.96-2.09
		c0.85-0.49,1.84-0.73,2.98-0.73c0.73,0,1.42,0.11,2.07,0.33c0.64,0.22,1.22,0.53,1.72,0.94c0.14,0.11,0.24,0.23,0.3,0.35
		s0.08,0.27,0.08,0.45c0,0.24-0.07,0.45-0.2,0.62c-0.13,0.17-0.29,0.25-0.48,0.25c-0.22,0-0.45-0.08-0.68-0.23
		c-0.48-0.36-0.92-0.6-1.33-0.74c-0.41-0.14-0.87-0.21-1.37-0.21c-1.16,0-2.03,0.36-2.63,1.08c-0.59,0.72-0.89,1.78-0.89,3.18
		C23.52,14.4,23.81,15.47,24.41,16.19z"/>
</g>
<g id="Isolation_Mode">
</g>
</svg>
