<?xml version="1.0" encoding="utf-8"?>
<!-- Generator: Adobe Illustrator 23.0.1, SVG Export Plug-In . SVG Version: 6.00 Build 0)  -->
<svg version="1.1" id="Layer_1" xmlns="http://www.w3.org/2000/svg" xmlns:xlink="http://www.w3.org/1999/xlink" x="0px" y="0px"
	 viewBox="0 0 220 55" style="enable-background:new 0 0 220 55;" xml:space="preserve">
<style type="text/css">
	.st0{fill:#FFFFFF;}
</style>
<g>
	<path class="st0" d="M1.31,53.97c0-17.63,0-35.24,0-52.94c22.35,0,44.66,0,67.05,0c0,17.62,0,35.24,0,52.94
		C46.05,53.97,23.71,53.97,1.31,53.97z M3.65,3.38c0,16.17,0,32.21,0,48.29c20.82,0,41.57,0,62.35,0c0-16.15,0-32.2,0-48.29
		C45.19,3.38,24.47,3.38,3.65,3.38z"/>
	<g>
		<path class="st0" d="M168.72,41.26c0.12,0.71,0.23,1.31,0.33,1.91c0.31,1.78,0.32,1.78-1.47,2.27c-3.38,0.93-6.83,1.16-10.3,0.76
			c-4.38-0.5-7.11-3.3-7.33-7.72c-0.17-3.56-0.17-7.15-0.02-10.71c0.21-4.95,3.25-7.99,8.21-8.35c1.57-0.11,3.18-0.05,4.74,0.17
			c3.66,0.51,6.07,2.79,6.58,6.45c0.38,2.77,0.36,5.59,0.52,8.5c-0.66,0.03-1.08,0.07-1.49,0.07c-4.26,0-8.52,0-12.78,0
			c-1.38,0-1.4,0-1.38,1.43c0.01,0.83,0.06,1.66,0.15,2.48c0.25,2.27,1.45,3.48,3.73,3.82c2.87,0.43,5.68-0.01,8.48-0.6
			C167.31,41.61,167.94,41.45,168.72,41.26z M154.31,30.75c3.79,0,7.44,0,11.19,0c-0.14-2.49,0.48-5.23-1.99-6.78
			c-2.24-1.41-4.86-1.34-7.12,0.03C153.91,25.52,154.37,28.22,154.31,30.75z"/>
		<path class="st0" d="M118.34,34.61c-1.55,0-2.85,0-4.14,0c-3.43,0-6.87,0.04-10.3-0.02c-0.94-0.02-1.22,0.31-1.14,1.18
			c0.1,1.11,0.09,2.24,0.24,3.34c0.24,1.69,1.29,2.69,2.93,3.08c2.59,0.63,5.17,0.28,7.74-0.17c1.13-0.2,2.24-0.47,3.47-0.74
			c0.19,1.08,0.4,2.1,0.52,3.13c0.02,0.2-0.28,0.56-0.51,0.64c-4.05,1.34-8.2,1.78-12.38,0.95c-3.87-0.77-6-2.95-6.3-6.84
			c-0.32-4.02-0.39-8.1-0.05-12.12c0.39-4.62,3.11-7.02,7.88-7.61c2.23-0.27,4.49-0.24,6.64,0.53c3.03,1.08,4.69,3.36,5.03,6.46
			C118.26,29.08,118.23,31.76,118.34,34.61z M113.9,30.78c-0.15-2.52,0.55-5.31-2.04-6.85c-2.3-1.37-4.97-1.33-7.2,0.18
			c-2.35,1.58-1.86,4.21-1.84,6.66C106.52,30.78,110.12,30.78,113.9,30.78z"/>
		<path class="st0" d="M192.4,45.84c0-0.51,0-0.86,0-1.21c0-6.07,0.01-12.14,0-18.21c0-2.22-0.64-2.89-2.87-2.73
			c-2.74,0.19-5.28,1.14-7.71,2.35c-0.26,0.13-0.45,0.68-0.45,1.04c-0.03,5.82-0.02,11.63-0.03,17.45c0,0.39,0,0.78,0,1.24
			c-1.54,0-2.96,0-4.5,0c-0.02-0.4-0.05-0.78-0.05-1.17c0-7.87,0.02-15.75-0.02-23.62c-0.01-0.99,0.29-1.27,1.22-1.18
			c0.78,0.07,1.58,0.02,2.45,0.02c0.14,0.72,0.28,1.38,0.43,2.15c1.03-0.39,2.02-0.77,3.02-1.13c2.39-0.85,4.82-1.5,7.39-1.49
			c3.38,0.01,5.22,1.65,5.61,5.01c0.07,0.61,0.09,1.23,0.09,1.84c0.01,6.14-0.02,12.28,0.03,18.42c0.01,1.02-0.3,1.32-1.28,1.24
			C194.68,45.78,193.63,45.84,192.4,45.84z"/>
		<path class="st0" d="M206.77,23.67c-1.33,0-2.48-0.04-3.63,0.01c-0.78,0.04-1.01-0.26-0.96-1c0.05-0.89,0.01-1.79,0.01-2.81
			c1.53,0,2.96,0,4.58,0c0-1.26,0-2.39,0-3.53c0-0.65,0.04-1.3-0.01-1.95c-0.06-0.67,0.19-0.99,0.86-1.07
			c1.18-0.14,2.35-0.33,3.69-0.52c0,1.97,0.06,3.88-0.02,5.77c-0.05,1.02,0.28,1.3,1.27,1.26c1.98-0.07,3.96-0.02,6.13-0.02
			c-0.12,1.2-0.18,2.3-0.37,3.37c-0.04,0.21-0.57,0.46-0.89,0.47c-1.98,0.04-3.96,0.02-6.06,0.02c-0.02,0.42-0.06,0.76-0.06,1.11
			c0,5.02-0.01,10.04,0,15.06c0,2.06,0.66,2.71,2.74,2.69c0.68-0.01,1.37-0.1,2.04-0.2c0.64-0.09,1.27-0.25,2.05-0.41
			c0.18,1.02,0.39,1.99,0.48,2.97c0.02,0.23-0.3,0.64-0.54,0.72c-2.44,0.82-4.96,1-7.48,0.48c-2.59-0.54-3.82-2.37-3.83-5.51
			c-0.02-5.2,0-10.4,0-15.6C206.77,24.61,206.77,24.22,206.77,23.67z"/>
		<path class="st0" d="M92.54,41.86c0.15,1.31,0.29,2.48,0.43,3.72c-2.38,0.76-4.75,0.82-7.13,0.78c-1.15-0.02-2.31-0.14-3.43-0.38
			c-3.49-0.72-5.66-2.91-5.85-6.45c-0.23-4.42-0.31-8.89,0.04-13.3c0.34-4.34,2.9-6.43,7.83-6.77c2.53-0.18,5.1,0.22,7.64,0.43
			c0.29,0.02,0.77,0.5,0.76,0.76c-0.02,1.03-0.19,2.07-0.31,3.16c-1.44-0.15-2.79-0.39-4.14-0.4c-1.54-0.01-3.1,0.05-4.62,0.31
			c-1.54,0.26-2.49,1.33-2.64,2.9c-0.15,1.58-0.17,3.17-0.19,4.75c-0.03,2.13-0.05,4.26,0.01,6.39c0.09,3.04,1.53,4.54,4.57,4.57
			c2.05,0.02,4.1-0.23,6.14-0.36C91.89,41.94,92.14,41.9,92.54,41.86z"/>
		<path class="st0" d="M125.27,9.24c1.45-0.22,2.86-0.44,4.37-0.67c0,12.43,0,24.77,0,37.19c-1.44,0-2.86,0-4.37,0
			C125.27,33.61,125.27,21.46,125.27,9.24z"/>
		<path class="st0" d="M142.65,8.59c0,12.45,0,24.78,0,37.18c-1.47,0-2.9,0-4.42,0c0-12.14,0-24.28,0-36.53
			C139.68,9.02,141.12,8.81,142.65,8.59z"/>
		<path class="st0" d="M58,45.85c-1.12,0-2.17,0.04-3.2-0.03c-0.24-0.02-0.57-0.35-0.67-0.61c-0.17-0.45-0.2-0.97-0.26-1.33
			c-1.6,0.69-3.11,1.46-4.7,1.99c-2.05,0.67-4.21,0.71-6.32,0.29c-3.22-0.65-5-3.02-5.09-6.97c-0.09-4.15-0.09-8.31,0.04-12.46
			c0.15-4.69,3.01-7.4,7.7-7.34c2.34,0.03,4.67,0.33,7.01,0.51c0.28,0.02,0.56,0.06,0.96,0.1c0-3.59,0-7.12,0-10.73
			c1.55-0.23,2.99-0.45,4.53-0.68C58,21.02,58,33.35,58,45.85z M53.47,31.85C53.48,31.85,53.48,31.85,53.47,31.85
			c0.01-2.27,0-4.55,0.02-6.82c0-0.56-0.05-1.02-0.73-1.07c-2.3-0.2-4.59-0.51-6.89-0.56c-2.1-0.04-3.42,1.11-3.49,3.21
			c-0.13,4.32-0.11,8.65-0.01,12.98c0.04,1.7,1.09,2.57,2.78,2.75c3.07,0.33,5.64-0.89,7.98-2.71c0.24-0.19,0.33-0.69,0.33-1.05
			C53.49,36.32,53.47,34.08,53.47,31.85z"/>
		<path class="st0" d="M30.62,41.29c0.21,1.25,0.4,2.38,0.63,3.72c-1.81,0.4-3.58,0.94-5.39,1.13c-1.96,0.21-3.97,0.22-5.94,0.11
			c-5.01-0.26-8.05-3.44-8.14-8.44c-0.05-3.11-0.05-6.21-0.01-9.32c0.07-5.29,2.66-8.28,7.87-9.03c2.19-0.31,4.4-0.23,6.54,0.42
			c3.33,1,5.41,4.05,5.51,8.1c0.04,1.88-0.03,3.76,0.03,5.63c0.03,0.85-0.3,1.02-1.07,1.01c-4.15-0.03-8.31-0.02-12.46-0.02
			c-0.57,0-1.15,0-1.85,0c-0.02,1.88-0.23,3.67,0.41,5.41c0.44,1.2,1.37,1.82,2.54,2.13c2.62,0.69,5.23,0.35,7.84-0.12
			C28.26,41.83,29.38,41.56,30.62,41.29z M27.34,30.78c-0.16-2.48,0.52-5.1-1.87-6.84c-1.66-1.21-5.62-1.15-7.27,0.07
			c-2.36,1.75-1.87,4.29-1.87,6.77C20,30.78,23.57,30.78,27.34,30.78z"/>
	</g>
</g>
</svg>
