<?xml version="1.0" encoding="utf-8"?>
<!-- Generator: Adobe Illustrator 23.0.1, SVG Export Plug-In . SVG Version: 6.00 Build 0)  -->
<svg version="1.1" xmlns="http://www.w3.org/2000/svg" xmlns:xlink="http://www.w3.org/1999/xlink" x="0px" y="0px"
	 viewBox="0 0 30 27" style="enable-background:new 0 0 30 27;" xml:space="preserve">
<style type="text/css">
	.st0{fill:#F5CF78;}
</style>
<g id="Layer_1">
	<g>
		<g>
			<path class="st0" d="M14.19,26.63c-0.21,0-0.42-0.06-0.6-0.17l-0.09-0.07l-7.65-6.83H0.51V7.52h5.25l7.83-6.97
				c0.34-0.22,0.78-0.23,1.14-0.03c0.36,0.2,0.58,0.57,0.58,0.98v24.02c0,0.41-0.22,0.78-0.58,0.98
				C14.56,26.58,14.37,26.63,14.19,26.63z"/>
		</g>
		<polygon class="st0" points="29.49,8.98 28.35,7.85 23.87,12.33 19.38,7.85 18.25,8.98 22.74,13.46 18.25,17.95 19.38,19.08 
			23.87,14.6 28.35,19.08 29.49,17.95 25,13.46 		"/>
	</g>
</g>
<g id="Isolation_Mode">
</g>
</svg>
