<?xml version="1.0" encoding="utf-8"?>
<!-- Generator: Adobe Illustrator 23.0.1, SVG Export Plug-In . SVG Version: 6.00 Build 0)  -->
<svg version="1.1" xmlns="http://www.w3.org/2000/svg" xmlns:xlink="http://www.w3.org/1999/xlink" x="0px" y="0px"
	 viewBox="0 0 27 27" style="enable-background:new 0 0 27 27;" xml:space="preserve">
<style type="text/css">
	.st0{fill:#F5CF78;}
</style>
<g id="Layer_1">
	<g>
		<path class="st0" d="M26.5,15.71v-4.41l-2.29-0.92c-0.23-0.77-0.54-1.52-0.93-2.23l0.98-2.28l-3.12-3.12l-2.3,0.99
			c-0.7-0.38-1.43-0.69-2.19-0.91L15.71,0.5h-4.42l-0.93,2.33C9.6,3.05,8.87,3.35,8.17,3.73l-2.3-0.99L2.75,5.87l0.98,2.28
			c-0.39,0.71-0.7,1.45-0.93,2.23L0.5,11.29v4.41l2.26,0.91c0.23,0.79,0.54,1.56,0.94,2.29l-0.96,2.23l3.12,3.12l2.21-0.95
			c0.74,0.41,1.51,0.73,2.32,0.97l0.89,2.23h4.42l0.89-2.23c0.81-0.23,1.58-0.56,2.32-0.97l2.21,0.95l3.12-3.12L23.3,18.9
			c0.4-0.73,0.71-1.49,0.94-2.29L26.5,15.71z M13.5,17.72c-2.3,0-4.17-1.87-4.17-4.17s1.87-4.18,4.17-4.18s4.17,1.87,4.17,4.18
			S15.8,17.72,13.5,17.72z"/>
	</g>
</g>
<g id="Isolation_Mode">
</g>
</svg>
