<?xml version="1.0" encoding="utf-8"?>
<!-- Generator: Adobe Illustrator 23.0.1, SVG Export Plug-In . SVG Version: 6.00 Build 0)  -->
<svg version="1.1" xmlns="http://www.w3.org/2000/svg" xmlns:xlink="http://www.w3.org/1999/xlink" x="0px" y="0px"
	 viewBox="0 0 30 27" style="enable-background:new 0 0 30 27;" xml:space="preserve">
<style type="text/css">
	.st0{fill:#F5CF78;}
</style>
<g id="Layer_1">
	<g>
		<path class="st0" d="M14.17,26.63c-0.21,0-0.42-0.06-0.6-0.17l-0.09-0.07l-7.65-6.83H0.5V7.52h5.25l7.83-6.97
			c0.34-0.22,0.78-0.23,1.14-0.03c0.36,0.2,0.58,0.57,0.58,0.98v24.02c0,0.41-0.22,0.78-0.58,0.98
			C14.55,26.58,14.36,26.63,14.17,26.63z"/>
		<g>
			<path class="st0" d="M18.74,18.91h-0.26v-1.86h0.26c1.96,0,3.55-1.59,3.55-3.55c0-1.96-1.59-3.55-3.55-3.55h-0.26V8.09h0.26
				c2.98,0,5.41,2.43,5.41,5.41C24.15,16.48,21.73,18.91,18.74,18.91z"/>
		</g>
		<g>
			<path class="st0" d="M18.66,24.34h-0.26v-1.86h0.26c4.95,0,8.98-4.03,8.98-8.98c0-4.95-4.03-8.98-8.98-8.98h-0.26V2.66h0.26
				c5.98,0,10.84,4.86,10.84,10.84S24.64,24.34,18.66,24.34z"/>
		</g>
	</g>
</g>
<g id="Isolation_Mode">
</g>
</svg>
